<?xml version="1.0" encoding="UTF-8" standalone="no"?>
<svg
   width="800"
   zoomAndPan="magnify"
   viewBox="0 0 600 179.999997"
   height="240"
   preserveAspectRatio="xMidYMid meet"
   version="1.0"
   id="svg361"
   sodipodi:docname="logo.svg"
   inkscape:version="1.2 (dc2aeda, 2022-05-15)"
   xmlns:inkscape="http://www.inkscape.org/namespaces/inkscape"
   xmlns:sodipodi="http://sodipodi.sourceforge.net/DTD/sodipodi-0.dtd"
   xmlns="http://www.w3.org/2000/svg"
   xmlns:svg="http://www.w3.org/2000/svg">
  <sodipodi:namedview
     id="namedview363"
     pagecolor="#ffffff"
     bordercolor="#000000"
     borderopacity="0.25"
     inkscape:showpageshadow="2"
     inkscape:pageopacity="0.0"
     inkscape:pagecheckerboard="0"
     inkscape:deskcolor="#d1d1d1"
     showgrid="false"
     inkscape:zoom="0.80375"
     inkscape:cx="-129.39347"
     inkscape:cy="111.35303"
     inkscape:window-width="1864"
     inkscape:window-height="1205"
     inkscape:window-x="62"
     inkscape:window-y="25"
     inkscape:window-maximized="0"
     inkscape:current-layer="svg361" />
  <defs
     id="defs137">
    <g
       id="g132" />
    <clipPath
       id="76eff29986">
      <path
         d="M 0 161 L 243 161 L 243 180 L 0 180 Z M 0 161 "
         clip-rule="nonzero"
         id="path134" />
    </clipPath>
  </defs>
  <path
     fill="#fabea1"
     d="M 136.300781 162.085938 L 117.710938 162.085938 C 111.679688 162.085938 106.394531 158.058594 104.792969 152.242188 L 93.101562 109.796875 L 121.421875 109.796875 Z M 136.300781 162.085938 "
     fill-opacity="1"
     fill-rule="nonzero"
     id="path139" />
  <path
     fill="#ffae39"
     d="M 93.101562 170.148438 L 15.664062 170.148438 L 7.632812 123.015625 C 6.734375 117.753906 3.285156 97.164062 27.78125 95.359375 C 52.277344 93.554688 77.523438 94.265625 77.523438 94.265625 Z M 93.101562 170.148438 "
     fill-opacity="1"
     fill-rule="nonzero"
     id="path141"
     style="fill:#3161cd;fill-opacity:1" />
  <path
     fill="#2563eb"
     d="M 115.285156 161.679688 L 35.644531 162.085938 L 27.78125 130.371094 C 24.285156 124.40625 22.890625 116.515625 24.632812 110.589844 C 25.675781 107.042969 28.304688 103.050781 30.910156 100.855469 C 32 99.9375 33.035156 98.957031 33.96875 97.882812 C 38.746094 92.390625 45.734375 85.578125 53.632812 83.378906 C 53.632812 83.378906 63.863281 82.574219 71.414062 81.855469 C 77.570312 81.269531 82.152344 80.742188 82.253906 80.753906 C 86.941406 81.261719 97.066406 83.816406 104.207031 89.71875 C 125.046875 106.957031 115.285156 161.679688 115.285156 161.679688 Z M 115.285156 161.679688 "
     fill-opacity="1"
     fill-rule="nonzero"
     id="path143"
     style="fill:#333333" />
  <g
     clip-path="url(#76eff29986)"
     id="g147">
    <path
       fill="#20163b"
       d="M 0.0976562 161.308594 L 243.066406 161.308594 L 243.066406 179.984375 L 0.0976562 179.984375 Z M 0.0976562 161.308594 "
       fill-opacity="1"
       fill-rule="nonzero"
       id="path145" />
  </g>
  <path
     fill="#fabea1"
     d="M 76.371094 166.121094 L 57.78125 166.121094 C 51.75 166.121094 48.664062 162.046875 44.863281 156.277344 C 41.058594 150.511719 27.78125 130.371094 27.78125 130.371094 C 27.78125 130.371094 33.519531 132.640625 41.667969 131.011719 C 51.519531 129.039062 55.550781 122.550781 55.550781 122.550781 L 71.28125 148.40625 Z M 76.371094 166.121094 "
     fill-opacity="1"
     fill-rule="nonzero"
     id="path149" />
  <path
     fill="#fabea1"
     d="M 120.058594 165.394531 C 100.261719 167.097656 59.871094 166.121094 59.871094 166.121094 C 57.484375 166.121094 55.550781 163.828125 55.550781 161.003906 L 55.550781 160.511719 C 55.550781 153.429688 60.402344 147.6875 66.382812 147.6875 L 115.96875 150.953125 C 116.734375 151.070312 120.347656 154.753906 120.425781 157.152344 C 120.535156 160.5625 126.0625 164.878906 120.058594 165.394531 Z M 120.058594 165.394531 "
     fill-opacity="1"
     fill-rule="nonzero"
     id="path151" />
  <path
     fill="#fabea1"
     d="M 83.570312 96.902344 L 53.632812 83.378906 L 55.773438 61.4375 L 81.253906 63.746094 L 81.613281 69.867188 L 82.253906 80.753906 L 82.800781 87.472656 Z M 83.570312 96.902344 "
     fill-opacity="1"
     fill-rule="nonzero"
     id="path153" />
  <path
     fill="#20163b"
     d="M 82.0625 77.46875 C 81.5 78.511719 73.890625 80.339844 67.71875 75.558594 C 63.457031 72.253906 61.144531 66.28125 59.863281 62.808594 C 58.773438 59.855469 60.054688 62.523438 62.683594 63.746094 C 69.65625 66.980469 77.496094 68.566406 81.613281 69.867188 C 81.613281 69.867188 81.855469 73.960938 82.0625 77.46875 Z M 82.0625 77.46875 "
     fill-opacity="1"
     fill-rule="nonzero"
     id="path155" />
  <path
     fill="#fabea1"
     d="M 83.214844 71.878906 C 80.699219 73.4375 71.0625 75.007812 60.445312 66.808594 C 49.824219 58.609375 47.78125 38.570312 47.78125 38.570312 C 46.648438 32.972656 50.269531 27.519531 55.871094 26.386719 L 72.355469 23.0625 C 77.953125 21.929688 83.40625 25.554688 84.539062 31.152344 L 85.824219 37.523438 C 85.824219 37.523438 86.144531 39.390625 86 42.582031 C 85.933594 44.035156 86.109375 45.488281 86.527344 46.882812 C 89.28125 55.984375 87.570312 69.175781 83.214844 71.878906 Z M 83.214844 71.878906 "
     fill-opacity="1"
     fill-rule="nonzero"
     id="path157" />
  <path
     fill="#fabea1"
     d="M 55.582031 50.121094 C 57.046875 53.933594 56.644531 57.191406 53.734375 58.3125 C 50.824219 59.433594 48.734375 57.273438 46.210938 53.640625 C 43.878906 50.289062 44.738281 46.34375 47.65625 45.25 C 51.398438 43.847656 54.113281 46.3125 55.582031 50.121094 Z M 55.582031 50.121094 "
     fill-opacity="1"
     fill-rule="nonzero"
     id="path159" />
  <path
     fill="#20163b"
     d="M 51.683594 56.40625 C 50.058594 56.40625 48.828125 54.863281 47.617188 53.125 C 46.78125 51.925781 46.507812 50.492188 46.878906 49.296875 C 47.167969 48.367188 47.808594 47.679688 48.675781 47.351562 C 48.828125 47.296875 48.996094 47.375 49.050781 47.523438 C 49.105469 47.675781 49.03125 47.84375 48.878906 47.898438 C 48.183594 48.160156 47.671875 48.71875 47.4375 49.46875 C 47.117188 50.496094 47.363281 51.738281 48.097656 52.792969 C 49.722656 55.128906 50.914062 56.277344 52.535156 55.652344 C 52.683594 55.597656 52.851562 55.671875 52.910156 55.820312 C 52.96875 55.972656 52.894531 56.140625 52.742188 56.199219 C 52.371094 56.34375 52.019531 56.40625 51.683594 56.40625 Z M 51.683594 56.40625 "
     fill-opacity="1"
     fill-rule="nonzero"
     id="path161" />
  <path
     fill="#20163b"
     d="M 71.289062 46.753906 C 71.3125 46.917969 71.320312 47.078125 71.308594 47.234375 C 71.292969 47.394531 71.261719 47.535156 71.210938 47.660156 C 71.164062 47.789062 71.097656 47.890625 71.019531 47.964844 C 70.941406 48.042969 70.851562 48.089844 70.753906 48.105469 C 70.65625 48.121094 70.558594 48.105469 70.460938 48.054688 C 70.363281 48.007812 70.269531 47.929688 70.179688 47.824219 C 70.09375 47.722656 70.019531 47.597656 69.960938 47.449219 C 69.898438 47.304688 69.855469 47.152344 69.828125 46.988281 C 69.804688 46.824219 69.796875 46.664062 69.808594 46.507812 C 69.820312 46.347656 69.851562 46.207031 69.902344 46.082031 C 69.953125 45.953125 70.019531 45.851562 70.097656 45.777344 C 70.175781 45.699219 70.265625 45.652344 70.359375 45.636719 C 70.457031 45.621094 70.554688 45.636719 70.65625 45.6875 C 70.753906 45.734375 70.847656 45.8125 70.933594 45.917969 C 71.019531 46.019531 71.09375 46.144531 71.15625 46.292969 C 71.21875 46.4375 71.261719 46.589844 71.289062 46.753906 Z M 71.289062 46.753906 "
     fill-opacity="1"
     fill-rule="nonzero"
     id="path163" />
  <path
     fill="#20163b"
     d="M 80.625 44.769531 C 80.648438 44.933594 80.65625 45.09375 80.644531 45.25 C 80.628906 45.410156 80.597656 45.550781 80.546875 45.675781 C 80.5 45.804688 80.433594 45.90625 80.355469 45.980469 C 80.277344 46.058594 80.1875 46.105469 80.089844 46.121094 C 79.992188 46.136719 79.894531 46.121094 79.796875 46.070312 C 79.699219 46.023438 79.605469 45.945312 79.515625 45.839844 C 79.429688 45.738281 79.355469 45.613281 79.296875 45.464844 C 79.234375 45.320312 79.191406 45.167969 79.164062 45.003906 C 79.140625 44.839844 79.132812 44.679688 79.144531 44.523438 C 79.15625 44.363281 79.1875 44.222656 79.238281 44.097656 C 79.289062 43.96875 79.355469 43.867188 79.433594 43.792969 C 79.511719 43.714844 79.601562 43.667969 79.699219 43.652344 C 79.792969 43.636719 79.890625 43.652344 79.992188 43.703125 C 80.089844 43.75 80.183594 43.828125 80.269531 43.933594 C 80.355469 44.035156 80.429688 44.160156 80.492188 44.308594 C 80.554688 44.453125 80.597656 44.605469 80.625 44.769531 Z M 80.625 44.769531 "
     fill-opacity="1"
     fill-rule="nonzero"
     id="path165" />
  <path
     fill="#20163b"
     d="M 66.574219 44.214844 C 66.554688 44.214844 66.535156 44.210938 66.515625 44.207031 C 66.359375 44.175781 66.257812 44.019531 66.289062 43.863281 C 66.308594 43.773438 66.773438 41.71875 69.785156 41.554688 C 69.945312 41.546875 70.085938 41.671875 70.09375 41.832031 C 70.101562 41.992188 69.980469 42.128906 69.816406 42.140625 C 67.246094 42.277344 66.863281 43.964844 66.863281 43.980469 C 66.832031 44.117188 66.710938 44.214844 66.574219 44.214844 Z M 66.574219 44.214844 "
     fill-opacity="1"
     fill-rule="nonzero"
     id="path167" />
  <path
     fill="#20163b"
     d="M 77.585938 60.617188 C 76.925781 60.617188 76.144531 60.445312 75.273438 59.929688 C 75.132812 59.847656 75.089844 59.667969 75.171875 59.53125 C 75.253906 59.390625 75.433594 59.34375 75.570312 59.425781 C 77.828125 60.765625 79.320312 59.511719 79.382812 59.457031 C 79.503906 59.351562 79.6875 59.367188 79.792969 59.488281 C 79.898438 59.609375 79.886719 59.792969 79.769531 59.898438 C 79.753906 59.910156 78.925781 60.617188 77.585938 60.617188 Z M 77.585938 60.617188 "
     fill-opacity="1"
     fill-rule="nonzero"
     id="path169" />
  <path
     fill="#20163b"
     d="M 81.324219 40.90625 C 81.25 40.90625 81.171875 40.878906 81.117188 40.820312 C 81.0625 40.765625 79.878906 39.617188 77.8125 40.859375 C 77.671875 40.941406 77.492188 40.898438 77.410156 40.757812 C 77.328125 40.621094 77.371094 40.441406 77.511719 40.359375 C 79.992188 38.871094 81.519531 40.398438 81.535156 40.414062 C 81.644531 40.527344 81.644531 40.710938 81.527344 40.824219 C 81.46875 40.878906 81.398438 40.90625 81.324219 40.90625 Z M 81.324219 40.90625 "
     fill-opacity="1"
     fill-rule="nonzero"
     id="path171" />
  <path
     fill="#20163b"
     d="M 77.34375 57.371094 C 77.234375 57.371094 77.128906 57.308594 77.078125 57.207031 C 77.011719 57.058594 77.070312 56.886719 77.21875 56.816406 C 77.230469 56.808594 78.527344 56.175781 78.609375 55.214844 C 78.675781 54.425781 77.28125 50.730469 76.328125 48.4375 C 76.265625 48.285156 76.335938 48.117188 76.484375 48.054688 C 76.632812 47.992188 76.804688 48.0625 76.867188 48.210938 C 77.113281 48.808594 79.289062 54.082031 79.191406 55.261719 C 79.078125 56.558594 77.535156 57.3125 77.46875 57.34375 C 77.429688 57.363281 77.386719 57.371094 77.34375 57.371094 Z M 77.34375 57.371094 "
     fill-opacity="1"
     fill-rule="nonzero"
     id="path173" />
  <path
     fill="#2563eb"
     d="M 121.421875 109.796875 C 121.421875 109.796875 113.671875 118.324219 109.578125 109.03125 C 105.484375 99.738281 84.707031 82.054688 92.082031 83.214844 C 97.46875 84.0625 108.046875 86.144531 113.273438 92.101562 C 119.066406 98.707031 121.421875 109.796875 121.421875 109.796875 Z M 121.421875 109.796875 "
     fill-opacity="1"
     fill-rule="nonzero"
     id="path175"
     style="fill:#333333" />
  <path
     fill="#20163b"
     d="M 61.445312 153.839844 C 61.394531 153.839844 61.34375 153.828125 61.300781 153.804688 C 61.15625 153.726562 61.101562 153.542969 61.183594 153.402344 C 63.714844 148.878906 70.898438 147.859375 71.203125 147.816406 C 71.363281 147.796875 71.515625 147.910156 71.539062 148.070312 C 71.558594 148.234375 71.445312 148.382812 71.28125 148.40625 C 71.210938 148.414062 64.089844 149.425781 61.703125 153.6875 C 61.648438 153.785156 61.546875 153.839844 61.445312 153.839844 Z M 61.445312 153.839844 "
     fill-opacity="1"
     fill-rule="nonzero"
     id="path177" />
  <path
     fill="#20163b"
     d="M 88.703125 104.640625 L 52.515625 87.746094 C 52.367188 87.675781 52.304688 87.503906 52.375 87.355469 C 52.441406 87.210938 52.617188 87.148438 52.761719 87.214844 L 88.054688 103.691406 L 86.664062 83.765625 C 86.652344 83.601562 86.773438 83.464844 86.933594 83.453125 C 87.09375 83.441406 87.234375 83.5625 87.246094 83.722656 Z M 88.703125 104.640625 "
     fill-opacity="1"
     fill-rule="nonzero"
     id="path179" />
  <path
     fill="#20163b"
     d="M 116.378906 116.820312 C 116.246094 116.820312 116.125 116.726562 116.09375 116.589844 C 113.199219 103.875 106.785156 95.546875 101.914062 90.800781 C 96.640625 85.660156 92.007812 83.5 91.960938 83.480469 C 91.816406 83.410156 91.75 83.238281 91.816406 83.09375 C 91.886719 82.945312 92.058594 82.882812 92.203125 82.949219 C 92.253906 82.96875 96.976562 85.171875 102.320312 90.382812 C 107.25 95.183594 113.738281 103.609375 116.664062 116.460938 C 116.699219 116.617188 116.601562 116.777344 116.445312 116.8125 C 116.421875 116.816406 116.402344 116.820312 116.378906 116.820312 Z M 116.378906 116.820312 "
     fill-opacity="1"
     fill-rule="nonzero"
     id="path181"
     style="fill:#1a1a1a" />
  <path
     fill="#fabea1"
     d="M 156.917969 156.273438 C 156.917969 158.625 154.691406 160.394531 151.84375 161.894531 C 151.625 162.011719 151.402344 162.121094 151.171875 162.234375 C 148.914062 163.359375 146.359375 164.339844 144.257812 165.308594 C 141.058594 166.785156 134.992188 163.667969 130.785156 163.667969 C 126.921875 163.667969 122.054688 166.21875 119.015625 164.960938 C 113.523438 162.683594 108.984375 158.582031 109.878906 154.101562 C 111.046875 148.257812 116.78125 145 129.019531 143.238281 C 139.753906 141.691406 156.917969 149.179688 156.917969 156.273438 Z M 156.917969 156.273438 "
     fill-opacity="1"
     fill-rule="nonzero"
     id="path183" />
  <path
     fill="#20163b"
     d="M 111.308594 150.933594 C 111.25 150.933594 111.195312 150.917969 111.144531 150.882812 C 111.015625 150.796875 110.980469 150.617188 111.070312 150.484375 C 113.652344 146.6875 119.175781 144.367188 128.976562 142.953125 C 129.648438 142.855469 130.359375 142.792969 131.089844 142.765625 C 131.253906 142.757812 131.382812 142.882812 131.386719 143.039062 C 131.394531 143.199219 131.269531 143.332031 131.113281 143.335938 C 130.402344 143.367188 129.710938 143.425781 129.058594 143.519531 C 119.558594 144.890625 113.992188 147.207031 111.542969 150.808594 C 111.488281 150.890625 111.398438 150.933594 111.308594 150.933594 Z M 111.308594 150.933594 "
     fill-opacity="1"
     fill-rule="nonzero"
     id="path185" />
  <path
     fill="#20163b"
     d="M 155.066406 153.953125 C 155.023438 153.953125 154.980469 153.945312 154.9375 153.925781 C 146.289062 149.65625 138.09375 149.136719 138.011719 149.132812 C 137.855469 149.125 137.734375 148.988281 137.742188 148.828125 C 137.753906 148.671875 137.890625 148.550781 138.046875 148.558594 C 138.128906 148.5625 146.433594 149.089844 155.191406 153.410156 C 155.335938 153.480469 155.394531 153.652344 155.324219 153.792969 C 155.273438 153.894531 155.171875 153.953125 155.066406 153.953125 Z M 155.066406 153.953125 "
     fill-opacity="1"
     fill-rule="nonzero"
     id="path187" />
  <path
     fill="#20163b"
     d="M 154.746094 158.777344 C 154.703125 158.777344 154.660156 158.765625 154.617188 158.746094 C 145.960938 154.476562 137.773438 153.957031 137.691406 153.953125 C 137.535156 153.945312 137.414062 153.808594 137.421875 153.652344 C 137.429688 153.492188 137.570312 153.371094 137.726562 153.382812 C 137.808594 153.386719 146.113281 153.910156 154.871094 158.230469 C 155.011719 158.300781 155.070312 158.472656 155 158.617188 C 154.953125 158.71875 154.851562 158.777344 154.746094 158.777344 Z M 154.746094 158.777344 "
     fill-opacity="1"
     fill-rule="nonzero"
     id="path189" />
  <path
     fill="#20163b"
     d="M 151.84375 161.894531 C 151.625 162.011719 151.402344 162.121094 151.171875 162.234375 C 143.699219 159.183594 137.28125 158.78125 137.207031 158.773438 C 137.050781 158.765625 136.929688 158.628906 136.9375 158.472656 C 136.949219 158.3125 137.085938 158.191406 137.242188 158.203125 C 137.316406 158.207031 144.085938 158.632812 151.84375 161.894531 Z M 151.84375 161.894531 "
     fill-opacity="1"
     fill-rule="nonzero"
     id="path191" />
  <path
     fill="#2563eb"
     d="M 219.496094 167.378906 L 125.332031 167.378906 C 123.929688 167.378906 122.796875 166.242188 122.796875 164.84375 L 122.796875 162.925781 C 122.796875 161.527344 123.929688 160.394531 125.332031 160.394531 L 222.226562 160.394531 L 222.226562 164.644531 C 222.226562 166.15625 221.003906 167.378906 219.496094 167.378906 Z M 219.496094 167.378906 "
     fill-opacity="1"
     fill-rule="nonzero"
     id="path193"
     style="fill:#000080" />
  <path
     fill="#2563eb"
     d="M 221.449219 160.394531 L 146.804688 160.394531 L 159.203125 114.726562 C 159.71875 112.8125 161.453125 111.480469 163.4375 111.480469 L 230.203125 111.480469 C 233.09375 111.480469 234.335938 113.171875 233.585938 115.960938 Z M 221.449219 160.394531 "
     fill-opacity="1"
     fill-rule="nonzero"
     id="path195" />
  <path
     fill="#9eadcd"
     d="M 222.226562 160.394531 L 147.582031 160.394531 L 159.980469 114.726562 C 160.496094 112.8125 162.234375 111.480469 164.21875 111.480469 L 230.984375 111.480469 C 233.871094 111.480469 235.113281 113.171875 234.363281 115.960938 Z M 222.226562 160.394531 "
     fill-opacity="1"
     fill-rule="nonzero"
     id="path197" />
  <path
     fill="#2563eb"
     d="M 195.726562 132.148438 C 196.0625 132.25 196.382812 132.386719 196.691406 132.558594 C 196.996094 132.730469 197.28125 132.9375 197.546875 133.175781 C 197.8125 133.410156 198.054688 133.675781 198.269531 133.96875 C 198.484375 134.261719 198.671875 134.578125 198.828125 134.917969 C 198.984375 135.253906 199.109375 135.605469 199.199219 135.976562 C 199.292969 136.34375 199.351562 136.722656 199.371094 137.109375 C 199.394531 137.496094 199.386719 137.882812 199.339844 138.273438 C 199.292969 138.660156 199.214844 139.042969 199.101562 139.421875 C 198.984375 139.796875 198.839844 140.160156 198.664062 140.507812 C 198.488281 140.859375 198.28125 141.1875 198.050781 141.496094 C 197.816406 141.804688 197.558594 142.089844 197.28125 142.347656 C 197 142.601562 196.699219 142.828125 196.382812 143.023438 C 196.066406 143.21875 195.738281 143.378906 195.394531 143.503906 C 195.054688 143.628906 194.707031 143.714844 194.355469 143.765625 C 194 143.816406 193.648438 143.832031 193.296875 143.804688 C 192.949219 143.78125 192.605469 143.714844 192.269531 143.613281 C 191.933594 143.515625 191.613281 143.378906 191.308594 143.203125 C 191.003906 143.03125 190.714844 142.828125 190.449219 142.589844 C 190.183594 142.351562 189.941406 142.085938 189.726562 141.792969 C 189.511719 141.5 189.328125 141.1875 189.171875 140.847656 C 189.011719 140.511719 188.890625 140.15625 188.796875 139.789062 C 188.707031 139.417969 188.648438 139.042969 188.625 138.65625 C 188.601562 138.269531 188.613281 137.882812 188.660156 137.492188 C 188.707031 137.101562 188.785156 136.71875 188.898438 136.34375 C 189.011719 135.96875 189.15625 135.605469 189.332031 135.253906 C 189.511719 134.90625 189.714844 134.578125 189.949219 134.265625 C 190.179688 133.957031 190.4375 133.675781 190.71875 133.417969 C 191 133.160156 191.296875 132.9375 191.613281 132.742188 C 191.933594 132.546875 192.261719 132.386719 192.601562 132.261719 C 192.945312 132.136719 193.292969 132.046875 193.644531 131.996094 C 193.996094 131.945312 194.347656 131.933594 194.699219 131.960938 C 195.050781 131.984375 195.394531 132.046875 195.726562 132.148438 Z M 195.726562 132.148438 "
     fill-opacity="1"
     fill-rule="nonzero"
     id="path199"
     style="fill:#11eb42;fill-opacity:1" />
  <path
     fill="#20163b"
     d="M 55.691406 45.597656 C 55.691406 45.597656 54.648438 38.066406 64.035156 36.210938 C 73.421875 34.359375 88.636719 32.886719 91.792969 27.984375 C 95.441406 22.304688 93.039062 17.441406 85.042969 17.464844 C 78.46875 17.488281 65.40625 22.148438 60.878906 25.117188 C 52.707031 30.472656 50.128906 41.425781 55.691406 45.597656 Z M 55.691406 45.597656 "
     fill-opacity="1"
     fill-rule="nonzero"
     id="path201" />
  <path
     fill="#20163b"
     d="M 54.300781 42.238281 C 54.300781 42.238281 52.738281 31.140625 60.734375 26.261719 C 66.882812 22.507812 83.226562 19.757812 85.648438 16.25 C 88.457031 12.191406 83.570312 10.078125 75.566406 11.875 C 70.640625 12.980469 63.136719 14.679688 56.011719 21.144531 C 49.023438 27.480469 50.023438 39.253906 54.300781 42.238281 Z M 54.300781 42.238281 "
     fill-opacity="1"
     fill-rule="nonzero"
     id="path203" />
  <path
     fill="#20163b"
     d="M 57.082031 21.378906 C 56.011719 21.144531 46.78125 26.59375 46.71875 34.820312 C 46.652344 43.050781 49.492188 45.945312 49.492188 45.945312 C 49.492188 45.945312 53.632812 50.554688 54.535156 56.40625 C 56.648438 50.003906 53.085938 45.222656 55.171875 41.746094 C 57.257812 38.269531 57.082031 21.378906 57.082031 21.378906 Z M 57.082031 21.378906 "
     fill-opacity="1"
     fill-rule="nonzero"
     id="path205" />
  <path
     fill="#20163b"
     d="M 83.203125 32.507812 C 83.203125 32.507812 85.792969 36.976562 86.027344 44.214844 C 87.5625 37.71875 85.390625 29.636719 85.390625 29.636719 Z M 83.203125 32.507812 "
     fill-opacity="1"
     fill-rule="nonzero"
     id="path207" />
  <path
     stroke-linecap="round"
     transform="matrix(0.242972, 0, 0, 0.242972, 0.0961516, 11.229068)"
     fill="none"
     stroke-linejoin="miter"
     d="M 189.505454 382.991374 C 204.81073 395.885105 219.505082 417.492555 228.234878 453.50497 "
     stroke="#20163b"
     stroke-width="3.3"
     stroke-opacity="1"
     stroke-miterlimit="10"
     id="path209" />
  <g
     fill="#2563eb"
     fill-opacity="1"
     id="g217"
     style="fill:#3161cd;fill-opacity:1"
     transform="matrix(0.9388064,0,0,0.86736244,7.3827786,3.9532927)">
    <g
       transform="translate(196.5775,79.051322)"
       id="g215"
       style="fill:#3161cd;fill-opacity:1">
      <g
         id="g213"
         style="fill:#3161cd;fill-opacity:1">
        <path
           d="m 23.625,-14.421875 11.171875,-41.0625 h 11.25 L 29.96875,0 H 16.484375 L 0.3125,-55.484375 h 11.265625 l 11.25,41.0625 c 0.05078,0.210937 0.179687,0.3125 0.390625,0.3125 0.21875,0 0.351562,-0.101563 0.40625,-0.3125 z m 0,0"
           id="path211"
           style="fill:#3161cd;fill-opacity:1" />
      </g>
    </g>
  </g>
  <g
     fill="#2563eb"
     fill-opacity="1"
     id="g225"
     style="fill:#3161cd;fill-opacity:1"
     transform="matrix(0.9388064,0,0,0.86736244,7.3827786,3.9532927)">
    <g
       transform="translate(249.0514,79.051322)"
       id="g223"
       style="fill:#3161cd;fill-opacity:1">
      <g
         id="g221"
         style="fill:#3161cd;fill-opacity:1">
        <path
           d="M 2.21875,0 V -10.703125 H 10.9375 V -44.78125 H 2.21875 v -10.703125 h 28.140625 v 10.703125 h -8.71875 v 34.078125 h 8.71875 V 0 Z m 0,0"
           id="path219"
           style="fill:#3161cd;fill-opacity:1" />
      </g>
    </g>
  </g>
  <g
     fill="#2563eb"
     fill-opacity="1"
     id="g233"
     style="fill:#3161cd;fill-opacity:1"
     transform="matrix(0.9388064,0,0,0.86736244,7.3827786,3.9532927)">
    <g
       transform="translate(287.73311,79.051322)"
       id="g231"
       style="fill:#3161cd;fill-opacity:1">
      <g
         id="g229"
         style="fill:#3161cd;fill-opacity:1">
        <path
           d="M 3.25,0 V -55.484375 H 37.8125 V -44.78125 H 13.953125 v 11.640625 h 15.9375 V -22.4375 h -15.9375 v 11.734375 H 37.8125 V 0 Z m 0,0"
           id="path227"
           style="fill:#3161cd;fill-opacity:1" />
      </g>
    </g>
  </g>
  <g
     fill="#2563eb"
     fill-opacity="1"
     id="g241"
     style="fill:#3161cd;fill-opacity:1"
     transform="matrix(0.9388064,0,0,0.86736244,7.3827786,3.9532927)">
    <g
       transform="translate(333.86578,79.051322)"
       id="g239"
       style="fill:#3161cd;fill-opacity:1">
      <g
         id="g237"
         style="fill:#3161cd;fill-opacity:1">
        <path
           d="m 1.90625,-44.78125 v -10.703125 h 36.375 V -44.78125 H 25.4375 V 0 H 14.75 v -44.78125 z m 0,0"
           id="path235"
           style="fill:#3161cd;fill-opacity:1" />
      </g>
    </g>
  </g>
  <g
     fill="#2563eb"
     fill-opacity="1"
     id="g249"
     style="fill:#3161cd;fill-opacity:1"
     transform="matrix(0.9388064,0,0,0.86736244,7.3827786,3.9532927)">
    <g
       transform="translate(380.15697,79.051322)"
       id="g247"
       style="fill:#3161cd;fill-opacity:1">
      <g
         id="g245"
         style="fill:#3161cd;fill-opacity:1">
        <path
           d="m 3.171875,-22.59375 v -10.296875 h 28.6875 v 10.296875 z m 0,0"
           id="path243"
           style="fill:#3161cd;fill-opacity:1" />
      </g>
    </g>
  </g>
  <g
     fill="#2563eb"
     fill-opacity="1"
     id="g257"
     style="fill:#3161cd;fill-opacity:1"
     transform="matrix(0.9388064,0,0,0.86736244,7.3827786,3.9532927)">
    <g
       transform="translate(421.2959,79.051322)"
       id="g255"
       style="fill:#3161cd;fill-opacity:1">
      <g
         id="g253"
         style="fill:#3161cd;fill-opacity:1">
        <path
           d="m 0.3125,0 11.65625,-47.5625 c 0.6875,-2.695312 1.96875,-4.820312 3.84375,-6.375 1.875,-1.5625 4.160156,-2.34375 6.859375,-2.34375 2.695313,0 4.984375,0.78125 6.859375,2.34375 1.875,1.554688 3.15625,3.679688 3.84375,6.375 L 45.015625,0 h -10.9375 L 31.46875,-10.703125 H 13.875 L 11.25,0 Z m 16.171875,-21.40625 h 12.375 L 23.0625,-45.109375 c -0.05469,-0.207031 -0.183594,-0.3125 -0.390625,-0.3125 -0.210937,0 -0.339844,0.105469 -0.390625,0.3125 z m 0,0"
           id="path251"
           style="fill:#3161cd;fill-opacity:1" />
      </g>
    </g>
  </g>
  <g
     fill="#2563eb"
     fill-opacity="1"
     id="g265"
     style="fill:#3161cd;fill-opacity:1"
     transform="matrix(0.9388064,0,0,0.86736244,7.3827786,3.9532927)">
    <g
       transform="translate(472.73935,79.051322)"
       id="g263"
       style="fill:#3161cd;fill-opacity:1">
      <g
         id="g261"
         style="fill:#3161cd;fill-opacity:1">
        <path
           d="m 30.671875,-21.640625 v -33.84375 H 41.375 V 0 H 27.984375 L 14.75,-34 c -0.117188,-0.21875 -0.277344,-0.296875 -0.484375,-0.234375 -0.210937,0.05469 -0.3125,0.183594 -0.3125,0.390625 V 0 H 3.25 v -55.484375 h 13.390625 l 13.25,34 c 0.05078,0.21875 0.191406,0.304687 0.421875,0.25 0.238281,-0.0625 0.359375,-0.195313 0.359375,-0.40625 z m 0,0"
           id="path259"
           style="fill:#3161cd;fill-opacity:1" />
      </g>
    </g>
  </g>
  <g
     fill="#2563eb"
     fill-opacity="1"
     id="g273"
     style="fill:#3161cd;fill-opacity:1"
     transform="matrix(0.9388064,0,0,0.86736244,7.3827786,3.9532927)">
    <g
       transform="translate(523.46941,79.051322)"
       id="g271"
       style="fill:#3161cd;fill-opacity:1">
      <g
         id="g269"
         style="fill:#3161cd;fill-opacity:1">
        <path
           d="m 3.25,0 v -55.484375 h 10.703125 v 22.34375 H 28.6875 v -22.34375 H 39.390625 V 0 H 28.6875 V -22.4375 H 13.953125 V 0 Z m 0,0"
           id="path267"
           style="fill:#3161cd;fill-opacity:1" />
      </g>
    </g>
  </g>
  <g
     fill="#545454"
     fill-opacity="1"
     id="g281"
     transform="translate(-25.1944,-5.5987558)">
    <g
       transform="translate(316.44457,130.87287)"
       id="g279">
      <g
         id="g277">
        <path
           d="M 13.109375,0.453125 C 10.929688,0.453125 9,-0.0351562 7.3125,-1.015625 c -1.6875,-0.976563 -2.992188,-2.3125 -3.90625,-4 -0.917969,-1.6875 -1.375,-3.554687 -1.375,-5.609375 0,-2.019531 0.445312,-3.875 1.34375,-5.5625 0.90625,-1.6875 2.203125,-3.019531 3.890625,-4 1.6875,-0.988281 3.632813,-1.484375 5.84375,-1.484375 2.207031,0 4.144531,0.496094 5.8125,1.484375 1.675781,0.980469 2.96875,2.3125 3.875,4 0.90625,1.6875 1.359375,3.542969 1.359375,5.5625 0,2.054688 -0.464844,3.921875 -1.390625,5.609375 -0.917969,1.6875 -2.214844,3.023437 -3.890625,4 -1.667969,0.9804688 -3.589844,1.46875 -5.765625,1.46875 z M 13.25,-3.59375 c 1.78125,0 3.179688,-0.65625 4.203125,-1.96875 C 18.484375,-6.882812 19,-8.539062 19,-10.53125 c 0,-2 -0.554688,-3.679688 -1.65625,-5.046875 -1.105469,-1.363281 -2.5625,-2.046875 -4.375,-2.046875 -1.75,0 -3.15625,0.679688 -4.21875,2.03125 -1.054688,1.355469 -1.578125,3.042969 -1.578125,5.0625 0,1.960938 0.566406,3.605469 1.703125,4.9375 1.132812,1.335938 2.59375,2 4.375,2 z m 0,0"
           id="path275" />
      </g>
    </g>
  </g>
  <g
     fill="#545454"
     fill-opacity="1"
     id="g289"
     transform="translate(-25.1944,-5.5987558)">
    <g
       transform="translate(342.61181,130.87287)"
       id="g287">
      <g
         id="g285">
        <path
           d="m 3.265625,-21.109375 h 4.875 L 8.1875,-17.25 c 0.582031,-1.289062 1.5,-2.347656 2.75,-3.171875 1.257812,-0.832031 2.734375,-1.25 4.421875,-1.25 2.175781,0 3.847656,0.453125 5.015625,1.359375 1.164062,0.90625 1.945312,2.171875 2.34375,3.796875 0.40625,1.625 0.609375,3.742187 0.609375,6.34375 V 0 h -4.96875 v -10.03125 c 0,-2.664062 -0.261719,-4.585938 -0.78125,-5.765625 -0.523437,-1.1875 -1.59375,-1.78125 -3.21875,-1.78125 -0.929687,0 -1.867187,0.289063 -2.8125,0.859375 -0.949219,0.5625 -1.742187,1.382812 -2.375,2.453125 -0.625,1.074219 -0.9375,2.335937 -0.9375,3.78125 V 0 h -4.96875 z m 0,0"
           id="path283" />
      </g>
    </g>
  </g>
  <g
     fill="#545454"
     fill-opacity="1"
     id="g295">
    <g
       transform="translate(369.05498, 130.872867)"
       id="g293">
      <g
         id="g291" />
    </g>
  </g>
  <g
     fill="#545454"
     fill-opacity="1"
     id="g303"
     transform="translate(-25.1944,-5.5987558)">
    <g
       transform="translate(380.32207,130.87287)"
       id="g301">
      <g
         id="g299">
        <path
           d="m 11.359375,0.453125 c -1.835937,0 -3.65625,-0.320313 -5.46875,-0.953125 -1.8125,-0.644531 -3.117187,-1.367188 -3.90625,-2.171875 l 2.4375,-4.359375 c 0.632813,0.585938 1.632813,1.1875 3,1.8125 1.363281,0.625 2.675781,0.9375 3.9375,0.9375 1.625,0 2.945313,-0.378906 3.96875,-1.140625 1.03125,-0.769531 1.546875,-1.832031 1.546875,-3.1875 0,-1.039063 -0.277344,-1.941406 -0.828125,-2.703125 -0.554687,-0.769531 -1.230469,-1.40625 -2.03125,-1.90625 -0.792969,-0.507812 -1.921875,-1.132812 -3.390625,-1.875 -1.75,-0.851562 -2.949219,-1.492188 -3.59375,-1.921875 -2.96875,-2 -4.453125,-4.757813 -4.453125,-8.28125 0,-2.914063 0.960937,-5.144531 2.890625,-6.6875 1.9375,-1.550781 4.375,-2.328125 7.3125,-2.328125 3.164062,0 5.851562,0.902344 8.0625,2.703125 l -2.4375,4.1875 C 17.820312,-28.035156 17,-28.5625 15.9375,-29 c -1.054688,-0.445312 -2.179688,-0.671875 -3.375,-0.671875 -1.53125,0 -2.734375,0.351563 -3.609375,1.046875 -0.875,0.6875 -1.3125,1.703125 -1.3125,3.046875 0,0.949219 0.273437,1.804687 0.828125,2.5625 0.550781,0.75 1.25,1.402344 2.09375,1.953125 0.84375,0.554688 1.984375,1.226562 3.421875,2.015625 1.375,0.773437 2.429687,1.382813 3.171875,1.828125 0.738281,0.4375 1.429688,0.964844 2.078125,1.578125 0.882813,0.804687 1.601563,1.757813 2.15625,2.859375 0.550781,1.105469 0.828125,2.3125 0.828125,3.625 0,2.054688 -0.46875,3.804688 -1.40625,5.25 -0.9375,1.4375 -2.230469,2.527344 -3.875,3.265625 -1.636719,0.7265625 -3.496094,1.09375 -5.578125,1.09375 z m 0,0"
           id="path297" />
      </g>
    </g>
  </g>
  <g
     fill="#545454"
     fill-opacity="1"
     id="g311"
     transform="translate(-25.1944,-5.5987558)">
    <g
       transform="translate(404.46584,130.87287)"
       id="g309">
      <g
         id="g307">
        <path
           d="M 13.109375,0.453125 C 10.929688,0.453125 9,-0.0351562 7.3125,-1.015625 c -1.6875,-0.976563 -2.992188,-2.3125 -3.90625,-4 -0.917969,-1.6875 -1.375,-3.554687 -1.375,-5.609375 0,-2.019531 0.445312,-3.875 1.34375,-5.5625 0.90625,-1.6875 2.203125,-3.019531 3.890625,-4 1.6875,-0.988281 3.632813,-1.484375 5.84375,-1.484375 2.207031,0 4.144531,0.496094 5.8125,1.484375 1.675781,0.980469 2.96875,2.3125 3.875,4 0.90625,1.6875 1.359375,3.542969 1.359375,5.5625 0,2.054688 -0.464844,3.921875 -1.390625,5.609375 -0.917969,1.6875 -2.214844,3.023437 -3.890625,4 -1.667969,0.9804688 -3.589844,1.46875 -5.765625,1.46875 z M 13.25,-3.59375 c 1.78125,0 3.179688,-0.65625 4.203125,-1.96875 C 18.484375,-6.882812 19,-8.539062 19,-10.53125 c 0,-2 -0.554688,-3.679688 -1.65625,-5.046875 -1.105469,-1.363281 -2.5625,-2.046875 -4.375,-2.046875 -1.75,0 -3.15625,0.679688 -4.21875,2.03125 -1.054688,1.355469 -1.578125,3.042969 -1.578125,5.0625 0,1.960938 0.566406,3.605469 1.703125,4.9375 1.132812,1.335938 2.59375,2 4.375,2 z m 0,0"
           id="path305" />
      </g>
    </g>
  </g>
  <g
     fill="#545454"
     fill-opacity="1"
     id="g319"
     transform="translate(-25.1944,-5.5987558)">
    <g
       transform="translate(430.63307,130.87287)"
       id="g317">
      <g
         id="g315">
        <path
           d="M 5.25,-17.15625 H 1.84375 v -3.953125 H 5.25 v -4.5625 c 0,-2.757813 0.664062,-4.894531 2,-6.40625 1.332031,-1.519531 3.285156,-2.28125 5.859375,-2.28125 1.039063,0 2.222656,0.292969 3.546875,0.875 l -0.96875,4.6875 c -0.21875,-0.238281 -0.554688,-0.472656 -1,-0.703125 -0.4375,-0.238281 -0.917969,-0.359375 -1.4375,-0.359375 -2.054688,0 -3.09375,1.335937 -3.125,4 v 4.75 h 4.96875 v 3.953125 H 10.125 V 0 H 5.25 Z m 0,0"
           id="path313" />
      </g>
    </g>
  </g>
  <g
     fill="#545454"
     fill-opacity="1"
     id="g327"
     transform="translate(-25.1944,-5.5987558)">
    <g
       transform="translate(447.28077,130.87287)"
       id="g325">
      <g
         id="g323">
        <path
           d="M 5.109375,-17.0625 H 1.375 v -4.046875 H 5.109375 V -29.71875 L 10.125,-30.8125 v 9.703125 H 15 V -17.0625 H 10.125 V 0 H 5.109375 Z m 0,0"
           id="path321" />
      </g>
    </g>
  </g>
  <g
     fill="#545454"
     fill-opacity="1"
     id="g335"
     transform="translate(-25.1944,-5.5987558)">
    <g
       transform="translate(463.0547,130.87287)"
       id="g333">
      <g
         id="g331">
        <path
           d="M 16.140625,-11.734375 9.890625,0 h -0.875 l -8.875,-21.109375 H 5.46875 l 4.5625,12.28125 6.015625,-12.28125 h 0.1875 l 6.078125,12.1875 4.546875,-12.1875 h 5.25 L 23.28125,0 h -0.875 z m 0,0"
           id="path329" />
      </g>
    </g>
  </g>
  <g
     fill="#545454"
     fill-opacity="1"
     id="g343"
     transform="translate(-25.1944,-5.5987558)">
    <g
       transform="translate(495.29238,130.87287)"
       id="g341">
      <g
         id="g339">
        <path
           d="m 12.609375,0.453125 c -1.90625,0 -3.667969,-0.44921875 -5.28125,-1.34375 C 5.722656,-1.796875 4.4375,-3.082031 3.46875,-4.75 c -0.960938,-1.675781 -1.4375,-3.632812 -1.4375,-5.875 0,-2.207031 0.414062,-4.140625 1.25,-5.796875 0.84375,-1.65625 2.046875,-2.941406 3.609375,-3.859375 1.570313,-0.925781 3.414063,-1.390625 5.53125,-1.390625 1.226563,0 2.378906,0.21875 3.453125,0.65625 1.070312,0.429687 1.972656,0.960937 2.703125,1.59375 0.738281,0.625 1.234375,1.242187 1.484375,1.84375 l 0.07813,-3.53125 h 4.75 V 0 H 20.1875 l -0.07813,-3.71875 c -0.531245,1.105469 -1.48437,2.078125 -2.85937,2.921875 -1.375,0.8320312 -2.921875,1.25 -4.640625,1.25 z M 13.4375,-3.6875 c 1.738281,0 3.207031,-0.601562 4.40625,-1.8125 1.195312,-1.207031 1.796875,-2.796875 1.796875,-4.765625 v -0.3125 c 0,-1.320313 -0.277344,-2.503906 -0.828125,-3.546875 -0.554688,-1.039062 -1.304688,-1.851562 -2.25,-2.4375 -0.949219,-0.582031 -1.992188,-0.875 -3.125,-0.875 -1.96875,0 -3.492188,0.640625 -4.5625,1.921875 -1.074219,1.273437 -1.609375,2.917969 -1.609375,4.9375 0,2.054687 0.523437,3.714844 1.578125,4.984375 1.0625,1.273438 2.59375,1.90625 4.59375,1.90625 z m 0,0"
           id="path337" />
      </g>
    </g>
  </g>
  <g
     fill="#545454"
     fill-opacity="1"
     id="g351"
     transform="translate(-25.1944,-5.5987558)">
    <g
       transform="translate(523.57508,130.87287)"
       id="g349">
      <g
         id="g347">
        <path
           d="m 3.125,-21.109375 h 4.96875 v 4.140625 c 0.488281,-1.414062 1.285156,-2.550781 2.390625,-3.40625 1.101563,-0.863281 2.363281,-1.296875 3.78125,-1.296875 0.976563,0 1.648437,0.09375 2.015625,0.28125 l -0.6875,5.015625 c -0.273438,-0.1875 -0.871094,-0.28125 -1.796875,-0.28125 -1.4375,0 -2.75,0.464844 -3.9375,1.390625 -1.179687,0.917969 -1.765625,2.386719 -1.765625,4.40625 V 0 H 3.125 Z m 0,0"
           id="path345" />
      </g>
    </g>
  </g>
  <g
     fill="#545454"
     fill-opacity="1"
     id="g359"
     transform="translate(-25.1944,-5.5987558)">
    <g
       transform="translate(540.08482,130.87287)"
       id="g357">
      <g
         id="g355">
        <path
           d="m 13.25,0.453125 c -2.523438,0 -4.625,-0.4921875 -6.3125,-1.484375 -1.679688,-1 -2.917969,-2.332031 -3.71875,-4 -0.792969,-1.675781 -1.1875,-3.507812 -1.1875,-5.5 0,-2.238281 0.460938,-4.203125 1.390625,-5.890625 0.9375,-1.6875 2.234375,-2.984375 3.890625,-3.890625 1.65625,-0.90625 3.523438,-1.359375 5.609375,-1.359375 3.25,0 5.664063,0.902344 7.25,2.703125 1.582031,1.792969 2.375,4.3125 2.375,7.5625 0,0.824219 -0.04687,1.683594 -0.140625,2.578125 H 7.21875 c 0.34375,1.867187 1.007812,3.214844 2,4.046875 1,0.824219 2.390625,1.234375 4.171875,1.234375 1.46875,0 2.675781,-0.117187 3.625,-0.359375 0.957031,-0.25 1.832031,-0.585938 2.625,-1.015625 L 21.15625,-1.375 c -0.761719,0.492188 -1.804688,0.917969 -3.125,1.28125 C 16.707031,0.269531 15.113281,0.453125 13.25,0.453125 Z m 4.453125,-12.734375 c 0.03125,-1.90625 -0.382813,-3.25 -1.234375,-4.03125 -0.855469,-0.78125 -2.085938,-1.171875 -3.6875,-1.171875 -3.21875,0 -5.074219,1.734375 -5.5625,5.203125 z m 0,0"
           id="path353" />
      </g>
    </g>
  </g>
</svg>
